<svg width="24" height="28" viewBox="0 0 24 28" fill="none" xmlns="http://www.w3.org/2000/svg">
<path d="M21.7911 12.4992L4.62106 12.4992L9.50106 6.95424C9.89106 6.5111 9.89106 5.7839 9.50106 5.34076C9.40855 5.23542 9.29866 5.15185 9.17769 5.09484C9.05671 5.03782 8.92703 5.00847 8.79606 5.00847C8.66509 5.00847 8.53541 5.03782 8.41444 5.09484C8.29347 5.15185 8.18358 5.23542 8.09106 5.34076L1.50106 12.8287C1.40836 12.9338 1.33481 13.0587 1.28463 13.1961C1.23445 13.3336 1.20862 13.4809 1.20862 13.6297C1.20862 13.7786 1.23445 13.9259 1.28463 14.0634C1.33481 14.2008 1.40836 14.3257 1.50106 14.4308L8.08106 21.9301C8.17364 22.0353 8.28356 22.1187 8.40452 22.1757C8.52548 22.2326 8.65513 22.2619 8.78606 22.2619C8.91699 22.2619 9.04664 22.2326 9.16761 22.1757C9.28857 22.1187 9.39848 22.0353 9.49106 21.9301C9.58364 21.8249 9.65708 21.7 9.70719 21.5626C9.75729 21.4251 9.78308 21.2778 9.78308 21.129C9.78308 20.9803 9.75729 20.8329 9.70719 20.6955C9.65708 20.5581 9.58364 20.4332 9.49106 20.328L4.62106 14.7717L21.7911 14.7717C22.3411 14.7717 22.7911 14.2604 22.7911 13.6354C22.7911 13.0105 22.3411 12.4992 21.7911 12.4992Z" fill="#333333"/>
</svg>
