<svg width="24" height="24" viewBox="0 0 24 24" fill="none" xmlns="http://www.w3.org/2000/svg">
<path d="M21.7909 11.0003L4.62094 11.0003L9.50094 6.1203C9.89094 5.7303 9.89094 5.0903 9.50094 4.7003C9.40843 4.60759 9.29854 4.53405 9.17756 4.48386C9.05659 4.43368 8.92691 4.40785 8.79594 4.40785C8.66497 4.40785 8.53529 4.43368 8.41432 4.48386C8.29334 4.53405 8.18345 4.60759 8.09094 4.7003L1.50094 11.2903C1.40824 11.3828 1.33469 11.4927 1.28451 11.6137C1.23433 11.7346 1.2085 11.8643 1.2085 11.9953C1.2085 12.1263 1.23433 12.2559 1.28451 12.3769C1.33469 12.4979 1.40824 12.6078 1.50094 12.7003L8.08094 19.3003C8.17352 19.3929 8.28343 19.4663 8.4044 19.5164C8.52536 19.5665 8.65501 19.5923 8.78594 19.5923C8.91687 19.5923 9.04652 19.5665 9.16748 19.5164C9.28845 19.4663 9.39836 19.3929 9.49094 19.3003C9.58352 19.2077 9.65696 19.0978 9.70707 18.9768C9.75717 18.8559 9.78296 18.7262 9.78296 18.5953C9.78296 18.4644 9.75717 18.3347 9.70707 18.2138C9.65696 18.0928 9.58352 17.9829 9.49094 17.8903L4.62094 13.0003H21.7909C22.3409 13.0003 22.7909 12.5503 22.7909 12.0003C22.7909 11.4503 22.3409 11.0003 21.7909 11.0003Z" fill="white"/>
</svg>
