<svg width="19" height="18" viewBox="0 0 19 18" fill="none" xmlns="http://www.w3.org/2000/svg">
<path d="M14.4929 14.76L4.4129 14.76L4.4129 6.84L14.4929 6.84M14.4929 3.24H13.7729V1.8L12.3329 1.8V3.24L6.5729 3.24V1.8L5.1329 1.8V3.24H4.4129C4.03099 3.24 3.66472 3.39171 3.39467 3.66177C3.12461 3.93182 2.9729 4.29809 2.9729 4.68L2.9729 14.76C2.9729 15.1419 3.12461 15.5082 3.39467 15.7782C3.66472 16.0483 4.03099 16.2 4.4129 16.2H14.4929C14.8748 16.2 15.2411 16.0483 15.5111 15.7782C15.7812 15.5082 15.9329 15.1419 15.9329 14.76L15.9329 4.68C15.9329 4.29809 15.7812 3.93182 15.5111 3.66177C15.2411 3.39171 14.8748 3.24 14.4929 3.24ZM12.7145 9.0432L11.9513 8.28L8.4377 11.7936L6.9113 10.2672L6.1481 11.0304L8.4377 13.32L12.7145 9.0432Z" fill="#3D6E99"/>
</svg>
