<svg width="24" height="24" viewBox="0 0 24 24" fill="none" xmlns="http://www.w3.org/2000/svg">
<path d="M12 1C17.523 1 22 5.477 22 11C22 16.523 17.523 21 12 21C10.3822 21.0021 8.78829 20.6102 7.35601 19.858L3.06601 20.975C2.92266 21.0123 2.77205 21.0116 2.6291 20.9728C2.48615 20.934 2.35582 20.8585 2.25102 20.7538C2.14623 20.6491 2.07062 20.5188 2.03168 20.3759C1.99273 20.233 1.99181 20.0824 2.02901 19.939L3.14501 15.65C2.39085 14.2162 1.99782 12.6201 2.00001 11C2.00001 5.477 6.47701 1 12 1ZM13.252 12H8.75001L8.64801 12.007C8.4685 12.0317 8.304 12.1206 8.18492 12.2571C8.06584 12.3937 8.00024 12.5688 8.00024 12.75C8.00024 12.9312 8.06584 13.1063 8.18492 13.2429C8.304 13.3794 8.4685 13.4683 8.64801 13.493L8.75001 13.5H13.252L13.353 13.493C13.5325 13.4683 13.697 13.3794 13.8161 13.2429C13.9352 13.1063 14.0008 12.9312 14.0008 12.75C14.0008 12.5688 13.9352 12.3937 13.8161 12.2571C13.697 12.1206 13.5325 12.0317 13.353 12.007L13.252 12ZM15.25 8.5H8.75001L8.64801 8.507C8.4685 8.5317 8.304 8.62055 8.18492 8.75714C8.06584 8.89372 8.00024 9.0688 8.00024 9.25C8.00024 9.4312 8.06584 9.60628 8.18492 9.74286C8.304 9.87945 8.4685 9.9683 8.64801 9.993L8.75001 10H15.25L15.352 9.993C15.5315 9.9683 15.696 9.87945 15.8151 9.74286C15.9342 9.60628 15.9998 9.4312 15.9998 9.25C15.9998 9.0688 15.9342 8.89372 15.8151 8.75714C15.696 8.62055 15.5315 8.5317 15.352 8.507L15.25 8.5Z" fill="#6295A2"/>
</svg>
