<svg width="24" height="25" viewBox="0 0 24 25" fill="none" xmlns="http://www.w3.org/2000/svg">
<path d="M12 1.5C17.523 1.5 22 5.977 22 11.5C22 17.023 17.523 21.5 12 21.5C10.3822 21.5021 8.78829 21.1102 7.35601 20.358L3.06601 21.475C2.92266 21.5123 2.77205 21.5116 2.6291 21.4728C2.48615 21.434 2.35582 21.3585 2.25102 21.2538C2.14623 21.1491 2.07062 21.0188 2.03168 20.8759C1.99273 20.733 1.99181 20.5824 2.02901 20.439L3.14501 16.15C2.39085 14.7162 1.99782 13.1201 2.00001 11.5C2.00001 5.977 6.47701 1.5 12 1.5ZM13.252 12.5H8.75001L8.64801 12.507C8.4685 12.5317 8.304 12.6206 8.18492 12.7571C8.06584 12.8937 8.00024 13.0688 8.00024 13.25C8.00024 13.4312 8.06584 13.6063 8.18492 13.7429C8.304 13.8794 8.4685 13.9683 8.64801 13.993L8.75001 14H13.252L13.353 13.993C13.5325 13.9683 13.697 13.8794 13.8161 13.7429C13.9352 13.6063 14.0008 13.4312 14.0008 13.25C14.0008 13.0688 13.9352 12.8937 13.8161 12.7571C13.697 12.6206 13.5325 12.5317 13.353 12.507L13.252 12.5ZM15.25 9H8.75001L8.64801 9.007C8.4685 9.0317 8.304 9.12055 8.18492 9.25714C8.06584 9.39372 8.00024 9.5688 8.00024 9.75C8.00024 9.9312 8.06584 10.1063 8.18492 10.2429C8.304 10.3794 8.4685 10.4683 8.64801 10.493L8.75001 10.5H15.25L15.352 10.493C15.5315 10.4683 15.696 10.3794 15.8151 10.2429C15.9342 10.1063 15.9998 9.9312 15.9998 9.75C15.9998 9.5688 15.9342 9.39372 15.8151 9.25714C15.696 9.12055 15.5315 9.0317 15.352 9.007L15.25 9Z" fill="#D7D7D7"/>
</svg>
