<svg width="24" height="24" viewBox="0 0 24 24" fill="none" xmlns="http://www.w3.org/2000/svg">
<path d="M4 18.0003H20C20.55 18.0003 21 17.5503 21 17.0003C21 16.4503 20.55 16.0003 20 16.0003H4C3.45 16.0003 3 16.4503 3 17.0003C3 17.5503 3.45 18.0003 4 18.0003ZM4 13.0003H20C20.55 13.0003 21 12.5503 21 12.0003C21 11.4503 20.55 11.0003 20 11.0003H4C3.45 11.0003 3 11.4503 3 12.0003C3 12.5503 3.45 13.0003 4 13.0003ZM3 7.00031C3 7.55031 3.45 8.00031 4 8.00031H20C20.55 8.00031 21 7.55031 21 7.00031C21 6.45031 20.55 6.00031 20 6.00031H4C3.45 6.00031 3 6.45031 3 7.00031Z" fill="#333333"/>
</svg>
