<svg width="16" height="16" viewBox="0 0 16 16" fill="none" xmlns="http://www.w3.org/2000/svg">
<path d="M10.5467 13.3333L14 13.3333C14.1768 13.3333 14.3464 13.2631 14.4714 13.1381C14.5964 13.013 14.6667 12.8435 14.6667 12.6667C14.6667 12.4899 14.5964 12.3203 14.4714 12.1953C14.3464 12.0702 14.1768 12 14 12L10.5467 12C10.4066 11.6139 10.1509 11.2803 9.81458 11.0446C9.47822 10.8088 9.07743 10.6823 8.66669 10.6823C8.25594 10.6823 7.85515 10.8088 7.5188 11.0446C7.18244 11.2803 6.92682 11.6139 6.78669 12L2.00002 12C1.82321 12 1.65364 12.0702 1.52862 12.1953C1.40359 12.3203 1.33335 12.4899 1.33335 12.6667C1.33335 12.8435 1.40359 13.013 1.52862 13.1381C1.65364 13.2631 1.82321 13.3333 2.00002 13.3333L6.78669 13.3333C6.92682 13.7194 7.18244 14.053 7.5188 14.2888C7.85515 14.5245 8.25594 14.651 8.66669 14.651C9.07743 14.651 9.47822 14.5245 9.81458 14.2888C10.1509 14.053 10.4066 13.7194 10.5467 13.3333ZM8.00002 12.6667C8.00002 12.5348 8.03912 12.4059 8.11237 12.2963C8.18563 12.1867 8.28975 12.1012 8.41156 12.0507C8.53338 12.0003 8.66743 11.9871 8.79675 12.0128C8.92607 12.0385 9.04486 12.102 9.13809 12.1953C9.23133 12.2885 9.29482 12.4073 9.32054 12.5366C9.34627 12.6659 9.33307 12.8 9.28261 12.9218C9.23215 13.0436 9.1467 13.1477 9.03707 13.221C8.92743 13.2942 8.79854 13.3333 8.66669 13.3333C8.48988 13.3333 8.32031 13.2631 8.19528 13.1381C8.07026 13.013 8.00002 12.8435 8.00002 12.6667ZM6.54669 8.66667L14 8.66667C14.1768 8.66667 14.3464 8.59643 14.4714 8.4714C14.5964 8.34638 14.6667 8.17681 14.6667 8C14.6667 7.82319 14.5964 7.65362 14.4714 7.52859C14.3464 7.40357 14.1768 7.33333 14 7.33333L6.54669 7.33333C6.40655 6.94723 6.15093 6.61364 5.81458 6.37789C5.47822 6.14215 5.07743 6.01568 4.66669 6.01568C4.25594 6.01568 3.85516 6.14215 3.5188 6.37789C3.18244 6.61364 2.92682 6.94723 2.78669 7.33333L2.00002 7.33333C1.82321 7.33333 1.65364 7.40357 1.52862 7.52859C1.40359 7.65362 1.33335 7.82319 1.33335 8C1.33335 8.17681 1.40359 8.34638 1.52862 8.4714C1.65364 8.59643 1.82321 8.66666 2.00002 8.66667L2.78669 8.66667C2.92682 9.05277 3.18244 9.38636 3.5188 9.6221C3.85516 9.85785 4.25594 9.98432 4.66669 9.98432C5.07743 9.98432 5.47822 9.85785 5.81458 9.6221C6.15093 9.38636 6.40655 9.05277 6.54669 8.66667ZM4.00002 8C4.00002 7.86814 4.03912 7.73925 4.11237 7.62962C4.18563 7.51999 4.28975 7.43454 4.41157 7.38408C4.53338 7.33362 4.66743 7.32042 4.79675 7.34614C4.92607 7.37186 5.04486 7.43536 5.13809 7.52859C5.23133 7.62183 5.29482 7.74062 5.32054 7.86994C5.34627 7.99926 5.33307 8.1333 5.28261 8.25512C5.23215 8.37694 5.1467 8.48106 5.03707 8.55431C4.92743 8.62757 4.79854 8.66667 4.66669 8.66667C4.48988 8.66667 4.32031 8.59643 4.19528 8.4714C4.07026 8.34638 4.00002 8.17681 4.00002 8ZM11.88 4L14 4C14.1768 4 14.3464 3.92976 14.4714 3.80474C14.5964 3.67971 14.6667 3.51014 14.6667 3.33333C14.6667 3.15652 14.5964 2.98695 14.4714 2.86193C14.3464 2.7369 14.1768 2.66667 14 2.66667L11.88 2.66667C11.7399 2.28056 11.4843 1.94697 11.1479 1.71123C10.8116 1.47548 10.4108 1.34901 10 1.34901C9.58927 1.34901 9.18849 1.47548 8.85213 1.71123C8.51577 1.94697 8.26016 2.28056 8.12002 2.66667L2.00002 2.66666C1.82321 2.66666 1.65364 2.7369 1.52862 2.86193C1.40359 2.98695 1.33335 3.15652 1.33335 3.33333C1.33335 3.51014 1.40359 3.67971 1.52862 3.80474C1.65364 3.92976 1.82321 4 2.00002 4L8.12002 4C8.26016 4.3861 8.51577 4.71969 8.85213 4.95544C9.18849 5.19118 9.58927 5.31765 10 5.31765C10.4108 5.31765 10.8116 5.19118 11.1479 4.95544C11.4843 4.71969 11.7399 4.3861 11.88 4ZM9.33335 3.33333C9.33335 3.20148 9.37245 3.07258 9.44571 2.96295C9.51896 2.85332 9.62308 2.76787 9.7449 2.71741C9.86672 2.66695 10.0008 2.65375 10.1301 2.67947C10.2594 2.7052 10.3782 2.76869 10.4714 2.86193C10.5647 2.95516 10.6282 3.07395 10.6539 3.20327C10.6796 3.33259 10.6664 3.46664 10.6159 3.58845C10.5655 3.71027 10.48 3.81439 10.3704 3.88765C10.2608 3.9609 10.1319 4 10 4C9.82321 4 9.65364 3.92976 9.52862 3.80474C9.40359 3.67971 9.33335 3.51014 9.33335 3.33333Z" fill="#737373"/>
</svg>
