<svg width="16" height="16" viewBox="0 0 16 16" fill="none" xmlns="http://www.w3.org/2000/svg">
<path d="M6.2286 12.5213L4.9406 12.1759L5.46527 10.2166C4.67998 9.92683 3.95011 9.50473 3.30727 8.96862L1.87194 10.4046L0.929269 9.46195L2.3646 8.02595C1.55406 7.05507 1.00942 5.89043 0.783936 4.64595L2.09594 4.40662C2.34757 5.78916 3.07639 7.03955 4.15535 7.93987C5.23432 8.84018 6.59502 9.33331 8.00027 9.33331C9.40552 9.33331 10.7662 8.84018 11.8452 7.93987C12.9242 7.03955 13.653 5.78916 13.9046 4.40662L15.2166 4.64528C14.991 5.89006 14.4462 7.05496 13.6353 8.02595L15.0713 9.46195L14.1286 10.4046L12.6926 8.96862C12.0498 9.50473 11.3199 9.92683 10.5346 10.2166L11.0599 12.1766L9.77194 12.5213L9.2466 10.5613C8.42158 10.7036 7.57829 10.7036 6.75327 10.5613L6.2286 12.5213Z" fill="white"/>
</svg>
