<svg width="25" height="25" viewBox="0 0 25 25" fill="none" xmlns="http://www.w3.org/2000/svg">
<g clip-path="url(#clip0_35_2668)">
<path d="M7.62012 3.15567C4.1259 3.15567 1.37012 5.91146 1.37012 9.40567C1.37012 11.542 2.33768 13.4221 3.88333 15.3118C5.4101 17.1784 7.57725 19.1435 10.1151 21.4448L10.1652 21.4903L10.274 21.5893C11.3204 22.5418 12.9188 22.5449 13.9688 21.5963L14.0729 21.5022L14.0745 21.5007L14.1511 21.4311C16.6779 19.135 18.8356 17.1743 20.3571 15.3128C21.9026 13.422 22.8701 11.542 22.8701 9.40567C22.8701 5.91146 20.1143 3.15567 16.6201 3.15567C15.1072 3.15567 13.6512 3.69527 12.504 4.59415C12.2909 4.76114 11.9494 4.76114 11.7362 4.59415C10.589 3.69527 9.13308 3.15567 7.62012 3.15567Z" stroke="#3D6E99" stroke-width="1.5"/>
</g>
<defs>
<clipPath id="clip0_35_2668">
<rect width="24" height="24" fill="white" transform="translate(0.120117 0.90567)"/>
</clipPath>
</defs>
</svg>
