<svg width="25" height="24" viewBox="0 0 25 24" fill="none" xmlns="http://www.w3.org/2000/svg">
<path fill-rule="evenodd" clip-rule="evenodd" d="M20.9191 7.57827L15.5331 3.12502C13.7188 1.62499 11.1614 1.62499 9.34715 3.12502L3.96109 7.57827C2.99071 8.38059 2.44012 9.59705 2.44012 10.8663V17.8109C2.44012 20.066 4.17427 22 6.44012 22H8.44012C9.54469 22 10.4401 21.1046 10.4401 20V16.7478C10.4401 15.4803 11.3922 14.5587 12.4401 14.5587C13.488 14.5587 14.4401 15.4803 14.4401 16.7478V20C14.4401 21.1046 15.3355 22 16.4401 22H18.4401C20.706 22 22.4401 20.066 22.4401 17.8109V10.8663C22.4401 9.59706 21.8895 8.38059 20.9191 7.57827Z" fill="#A7A7A7"/>
</svg>
