<svg width="23" height="23" viewBox="0 0 23 23" fill="none" xmlns="http://www.w3.org/2000/svg">
<path fill-rule="evenodd" clip-rule="evenodd" d="M7.43301 20.7541H15.5044C18.6618 20.7541 20.7823 18.5393 20.7823 15.2437V7.63808C20.7823 4.34252 18.6618 2.12775 15.5053 2.12775H7.43301C4.27652 2.12775 2.15601 4.34252 2.15601 7.63808V15.2437C2.15601 18.5393 4.27652 20.7541 7.43301 20.7541ZM8.2081 10.5097C6.92414 10.5097 5.88087 9.46501 5.88087 8.1814C5.88087 6.8978 6.92414 5.85311 8.2081 5.85311C9.49112 5.85311 10.5353 6.8978 10.5353 8.1814C10.5353 9.46501 9.49112 10.5097 8.2081 10.5097ZM18.7525 14.1734C19.0644 14.9731 18.9024 15.9342 18.569 16.7261C18.1738 17.668 17.4171 18.3812 16.4637 18.6926C16.0404 18.831 15.5965 18.8915 15.1535 18.8915H7.30465C6.5236 18.8915 5.83246 18.7041 5.26587 18.3552C4.91093 18.1361 4.84819 17.6305 5.11135 17.3028C5.55151 16.755 5.98605 16.2052 6.42433 15.6507C7.2597 14.5896 7.82254 14.282 8.44813 14.5521C8.70192 14.6636 8.95665 14.8308 9.21888 15.0077C9.91751 15.4825 10.8887 16.1351 12.1679 15.4267C13.0434 14.9364 13.5511 14.0954 13.9933 13.363L14.0007 13.3507C14.0319 13.2996 14.0628 13.2484 14.0936 13.1974L14.094 13.1967C14.2426 12.9508 14.3893 12.7083 14.5551 12.4848C14.763 12.2051 15.5338 11.3305 16.5321 11.9533C17.168 12.3454 17.7027 12.8759 18.2749 13.444C18.4931 13.6612 18.6486 13.9082 18.7525 14.1734Z" fill="#9E9E9E"/>
</svg>
