<svg width="18" height="17" viewBox="0 0 18 17" fill="none" xmlns="http://www.w3.org/2000/svg">
<path d="M9 1.039C7.35957 1.04079 5.78688 1.64343 4.62692 2.71472C3.46696 3.78601 2.81444 5.23848 2.8125 6.75351C2.811 7.99153 3.24884 9.1959 4.059 10.1822C4.059 10.1822 4.22775 10.3874 4.25532 10.417L9 15.585L13.7469 10.4144C13.7717 10.3869 13.941 10.1822 13.941 10.1822L13.9416 10.1807C14.7512 9.1947 15.1888 7.99094 15.1875 6.75351C15.1856 5.23848 14.5331 3.78601 13.3731 2.71472C12.2131 1.64343 10.6404 1.04079 9 1.039ZM9 8.83152C8.555 8.83152 8.11998 8.70965 7.74997 8.48131C7.37996 8.25298 7.09157 7.92844 6.92127 7.54873C6.75098 7.16903 6.70642 6.75121 6.79324 6.34812C6.88005 5.94502 7.09435 5.57476 7.40901 5.28414C7.72368 4.99353 8.12459 4.79562 8.56105 4.71544C8.99751 4.63526 9.44991 4.67641 9.86104 4.83369C10.2722 4.99097 10.6236 5.25731 10.8708 5.59904C11.118 5.94076 11.25 6.34252 11.25 6.75351C11.2493 7.30442 11.012 7.83257 10.5902 8.22213C10.1684 8.61168 9.59651 8.83083 9 8.83152Z" fill="#3D6E99"/>
</svg>
