<svg width="20" height="20" viewBox="0 0 20 20" fill="none" xmlns="http://www.w3.org/2000/svg">
<path d="M17.3664 1.01126C17.3477 1.00975 17.332 1 17.3125 1H9.25C8.00951 1 7 2.00951 7 3.25V3.99995C7 4.414 7.33591 4.75005 7.74995 4.75005C8.164 4.75005 8.49991 4.414 8.49991 3.99995V3.25C8.49991 2.83678 8.83664 2.50005 9.25 2.50005H12.7442L12.5154 2.57654C11.908 2.78651 11.5 3.35876 11.5 3.99995V15.25H9.25C8.83664 15.25 8.49991 14.9132 8.49991 14.5V13C8.49991 12.586 8.164 12.25 7.74995 12.25C7.33591 12.25 7 12.586 7 13V14.5C7 15.7405 8.00951 16.75 9.25 16.75H11.5V17.5C11.5 18.3272 12.1726 19 12.9999 19C13.1604 19 13.3127 18.9768 13.4777 18.9257L17.9837 17.4235C18.5919 17.2135 19 16.6412 19 16V2.50005C19 1.62553 18.2462 0.939987 17.3664 1.01126Z" fill="#FF8686"/>
<path d="M9.03018 7.96971L6.03023 4.96976C5.81572 4.75525 5.49327 4.69071 5.21271 4.80703C4.93297 4.92321 4.75005 5.19704 4.75005 5.49999V7.74999H1.74995C1.33604 7.74999 1 8.08603 1 8.49994C1 8.91399 1.33604 9.25003 1.74995 9.25003H4.75005V11.5C4.75005 11.803 4.93297 12.0767 5.21271 12.193C5.49327 12.3092 5.81572 12.2448 6.03023 12.0303L9.03018 9.03017C9.32352 8.73697 9.32352 8.26305 9.03018 7.96971Z" fill="#FF8686"/>
</svg>
