<svg width="24" height="24" viewBox="0 0 24 24" fill="none" xmlns="http://www.w3.org/2000/svg">
<path fill-rule="evenodd" clip-rule="evenodd" d="M12 2C6.47718 2 2.00003 6.47715 2.00003 12C2.00003 13.7931 2.47283 15.4784 3.30088 16.9352L2.05134 20.6838C1.93157 21.0431 2.02509 21.4393 2.29292 21.7071C2.56075 21.9749 2.95692 22.0685 3.31625 21.9487L7.06485 20.6992C8.52163 21.5272 10.2069 22 12 22C17.5229 22 22 17.5228 22 12C22 6.47715 17.5229 2 12 2ZM11 7H13V11H17V13H13V17H11V13H7V11H11V7Z" fill="white"/>
</svg>
