<svg width="24" height="24" viewBox="0 0 24 24" fill="none" xmlns="http://www.w3.org/2000/svg">
<path d="M14.7687 17.5379V18.2302C14.7687 18.9647 14.4769 19.669 13.9576 20.1884C13.4382 20.7077 12.7339 20.9995 11.9994 20.9995C11.265 20.9995 10.5606 20.7077 10.0413 20.1884C9.52196 19.669 9.2302 18.9647 9.2302 18.2302V17.5379M19.4279 16.1286C18.3167 14.7687 17.5323 14.0764 17.5323 10.3271C17.5323 6.89368 15.779 5.67046 14.336 5.07637C14.1443 4.99762 13.9639 4.81676 13.9054 4.61988C13.6523 3.75839 12.9427 2.99945 11.9994 2.99945C11.0562 2.99945 10.3461 3.75883 10.0956 4.62075C10.0372 4.81979 9.85674 4.99762 9.66506 5.07637C8.2203 5.67133 6.46876 6.89022 6.46876 10.3271C6.4666 14.0764 5.68213 14.7687 4.57097 16.1286C4.11059 16.692 4.51386 17.5379 5.3191 17.5379H18.6841C19.485 17.5379 19.8857 16.6894 19.4279 16.1286Z" stroke="#333333" stroke-width="1.3472" stroke-linecap="round" stroke-linejoin="round"/>
</svg>
