<svg width="24" height="25" viewBox="0 0 24 25" fill="none" xmlns="http://www.w3.org/2000/svg">
<g clip-path="url(#clip0_46_3265)">
<path d="M18.031 17.117L21.6064 20.6916C21.9972 21.0823 21.9972 21.7158 21.6065 22.1065C21.2158 22.4972 20.5823 22.4972 20.1916 22.1064L16.617 18.531C15.0237 19.8082 13.042 20.5029 11 20.5C6.032 20.5 2 16.468 2 11.5C2 6.532 6.032 2.5 11 2.5C15.968 2.5 20 6.532 20 11.5C20.0029 13.542 19.3082 15.5237 18.031 17.117ZM12.178 7.677C11.3244 7.4142 10.4074 7.44466 9.57305 7.76352C8.73875 8.08238 8.03516 8.6713 7.5744 9.43644C7.11365 10.2016 6.92223 11.0989 7.03064 11.9855C7.13906 12.872 7.54108 13.6968 8.17264 14.3284C8.8042 14.9599 9.62896 15.3619 10.5155 15.4704C11.4021 15.5788 12.2994 15.3874 13.0646 14.9266C13.8297 14.4658 14.4186 13.7623 14.7375 12.9279C15.0563 12.0936 15.0868 11.1766 14.824 10.323C14.6906 10.6177 14.4878 10.8757 14.2328 11.0747C13.9779 11.2738 13.6784 11.4081 13.3602 11.4661C13.042 11.524 12.7144 11.5039 12.4056 11.4075C12.0969 11.311 11.8161 11.1411 11.5874 10.9124C11.3587 10.6836 11.1889 10.4028 11.0926 10.094C10.9963 9.78515 10.9763 9.4576 11.0344 9.13938C11.0925 8.82116 11.2268 8.52177 11.426 8.26689C11.6252 8.01202 11.8832 7.81026 12.178 7.677Z" fill="#D7D7D7"/>
</g>
<defs>
<clipPath id="clip0_46_3265">
<rect width="24" height="24" fill="white" transform="translate(0 0.5)"/>
</clipPath>
</defs>
</svg>
