<svg width="20" height="20" viewBox="0 0 20 20" fill="none" xmlns="http://www.w3.org/2000/svg">
<path fill-rule="evenodd" clip-rule="evenodd" d="M11.84 4.025C12.2177 4.14167 12.5788 4.29167 12.9233 4.475L14.4508 3.55834C14.6101 3.46281 14.7967 3.42322 14.981 3.44587C15.1654 3.46851 15.3369 3.55209 15.4683 3.68334L16.3166 4.53167C16.4479 4.66309 16.5314 4.83458 16.5541 5.01893C16.5767 5.20327 16.5372 5.3899 16.4416 5.54917L15.525 7.07667C15.7083 7.42112 15.8583 7.78223 15.975 8.16L17.7025 8.5925C17.8827 8.63765 18.0426 8.74171 18.1569 8.88817C18.2712 9.03462 18.3333 9.21506 18.3333 9.40084V10.5992C18.3333 10.7849 18.2712 10.9654 18.1569 11.1118C18.0426 11.2583 17.8827 11.3624 17.7025 11.4075L15.975 11.84C15.8583 12.2178 15.7083 12.5789 15.525 12.9233L16.4416 14.4508C16.5372 14.6101 16.5767 14.7967 16.5541 14.9811C16.5314 15.1654 16.4479 15.3369 16.3166 15.4683L15.4683 16.3167C15.3369 16.4479 15.1654 16.5315 14.981 16.5541C14.7967 16.5768 14.6101 16.5372 14.4508 16.4417L12.9233 15.525C12.5788 15.7083 12.2177 15.8583 11.84 15.975L11.4075 17.7025C11.3623 17.8827 11.2583 18.0427 11.1118 18.157C10.9653 18.2713 10.7849 18.3333 10.5991 18.3333H9.40079C9.21502 18.3333 9.03457 18.2713 8.88812 18.157C8.74167 18.0427 8.6376 17.8827 8.59246 17.7025L8.15996 15.975C7.78554 15.8593 7.42283 15.7086 7.07663 15.525L5.54913 16.4417C5.38985 16.5372 5.20322 16.5768 5.01888 16.5541C4.83454 16.5315 4.66304 16.4479 4.53163 16.3167L3.68329 15.4683C3.55205 15.3369 3.46847 15.1654 3.44582 14.9811C3.42318 14.7967 3.46276 14.6101 3.55829 14.4508L4.47496 12.9233C4.29133 12.5771 4.14066 12.2144 4.02496 11.84L2.29746 11.4075C2.11739 11.3624 1.95754 11.2585 1.84326 11.1122C1.72898 10.9659 1.66682 10.7856 1.66663 10.6V9.40167C1.66663 9.2159 1.72871 9.03545 1.84301 8.889C1.9573 8.74254 2.11725 8.63848 2.29746 8.59334L4.02496 8.16084C4.14163 7.78306 4.29163 7.42195 4.47496 7.07751L3.55829 5.55C3.46276 5.39073 3.42318 5.2041 3.44582 5.01976C3.46847 4.83542 3.55205 4.66392 3.68329 4.53251L4.53163 3.68334C4.66304 3.55209 4.83454 3.46851 5.01888 3.44587C5.20322 3.42322 5.38985 3.46281 5.54913 3.55834L7.07663 4.475C7.42107 4.29167 7.78218 4.14167 8.15996 4.025L8.59246 2.29751C8.63757 2.11744 8.74151 1.95759 8.88779 1.84331C9.03408 1.72903 9.21433 1.66686 9.39996 1.66667H10.5983C10.7841 1.66668 10.9645 1.72876 11.111 1.84305C11.2574 1.95735 11.3615 2.1173 11.4066 2.29751L11.84 4.025ZM9.99996 13.3333C10.884 13.3333 11.7319 12.9821 12.357 12.357C12.9821 11.7319 13.3333 10.8841 13.3333 10C13.3333 9.11595 12.9821 8.2681 12.357 7.64298C11.7319 7.01786 10.884 6.66667 9.99996 6.66667C9.1159 6.66667 8.26806 7.01786 7.64294 7.64298C7.01782 8.2681 6.66663 9.11595 6.66663 10C6.66663 10.8841 7.01782 11.7319 7.64294 12.357C8.26806 12.9821 9.1159 13.3333 9.99996 13.3333Z" fill="#3D6E99"/>
</svg>
