<svg width="25" height="26" viewBox="0 0 25 26" fill="none" xmlns="http://www.w3.org/2000/svg">
<path d="M11.1869 3.06153C11.3058 2.82263 11.4897 2.62149 11.7179 2.48085C11.946 2.3402 12.2093 2.26567 12.4779 2.26567C12.7465 2.26567 13.0098 2.3402 13.2379 2.48085C13.466 2.62149 13.65 2.82263 13.7689 3.06153L16.2021 7.95188L21.6429 8.73573C21.9088 8.77378 22.1588 8.88491 22.3644 9.05653C22.57 9.22816 22.7231 9.45344 22.8063 9.70688C22.8895 9.96032 22.8996 10.2318 22.8353 10.4906C22.7711 10.7494 22.6351 10.9853 22.4427 11.1714L18.5041 14.9796L19.4336 20.3539C19.4788 20.6165 19.449 20.8863 19.3477 21.133C19.2463 21.3797 19.0774 21.5933 18.8601 21.7498C18.6428 21.9063 18.3857 21.9993 18.1178 22.0185C17.8499 22.0376 17.582 21.9821 17.3443 21.8581L12.4779 19.3225L7.61145 21.8613C7.37349 21.9855 7.10521 22.0412 6.837 22.0219C6.56878 22.0027 6.31136 21.9094 6.0939 21.7525C5.87643 21.5956 5.70761 21.3814 5.60657 21.1342C5.50552 20.887 5.47629 20.6167 5.52218 20.3539L6.45004 14.9796L2.51465 11.173C2.32233 10.9869 2.18631 10.7513 2.12197 10.4926C2.05764 10.2339 2.06756 9.96247 2.15061 9.70907C2.23366 9.45567 2.38653 9.23037 2.59193 9.05864C2.79734 8.88692 3.04708 8.77561 3.31293 8.73732L8.75208 7.95347L11.1869 3.06311V3.06153Z" fill="#F5BE00"/>
</svg>
